HIERARCHY
ROOT hip
{
  OFFSET 0 0 0
  CHANNELS 6 Xposition Yposition Zposition Zrotation Yrotation Xrotation
  JOINT abdomen
  {
    OFFSET 0 20.6881 -0.73152
    CHANNELS 3 Zrotation Xrotation Yrotation
    JOINT chest
    {
      OFFSET 0 11.7043 -0.48768
      CHANNELS 3 Zrotation Xrotation Yrotation
      JOINT neck
      {
        OFFSET 0 22.1894 -2.19456
        CHANNELS 3 Zrotation Xrotation Yrotation
        JOINT head
        {
          OFFSET -0.24384 7.07133 1.2192
          CHANNELS 3 Zrotation Xrotation Yrotation
          JOINT leftEye
          {
            OFFSET 4.14528 8.04674 8.04672
            CHANNELS 3 Zrotation Xrotation Yrotation
            End Site
            {
              OFFSET 1 0 0
            }
          }
          JOINT rightEye
          {
            OFFSET -3.6576 8.04674 8.04672
            CHANNELS 3 Zrotation Xrotation Yrotation
            End Site
            {
              OFFSET 1 0 0
            }
          }
        }
      }
      JOINT rCollar
      {
        OFFSET -2.68224 19.2634 -4.8768
        CHANNELS 3 Zrotation Xrotation Yrotation
        JOINT rShldr
        {
          OFFSET -8.77824 -1.95073 1.46304
          CHANNELS 3 Zrotation Xrotation Yrotation
          JOINT rForeArm
          {
            OFFSET -28.1742 -1.7115 0.48768
            CHANNELS 3 Zrotation Xrotation Yrotation
            JOINT rHand
            {
              OFFSET -22.5879 0.773209 7.07136
              CHANNELS 3 Zrotation Xrotation Yrotation
              JOINT rThumb1
              {
                OFFSET -1.2192 -0.487915 3.41376
                CHANNELS 3 Zrotation Xrotation Yrotation
                JOINT rThumb2
                {
                  OFFSET -3.37035 -0.52449 3.41376
                  CHANNELS 3 Zrotation Xrotation Yrotation
                  End Site
                  {
                    OFFSET -1.78271 -1.18214 1.43049
                  }
                }
              }
              JOINT rIndex1
              {
                OFFSET -7.75947 0.938293 5.60832
                CHANNELS 3 Zrotation Xrotation Yrotation
                JOINT rIndex2
                {
                  OFFSET -2.54057 -0.884171 1.56538
                  CHANNELS 3 Zrotation Xrotation Yrotation
                  End Site
                  {
                    OFFSET -1.62519 -0.234802 1.16502
                  }
                }
              }
              JOINT rMid1
              {
                OFFSET -8.24714 1.18213 3.41376
                CHANNELS 3 Zrotation Xrotation Yrotation
                JOINT rMid2
                {
                  OFFSET -3.10165 -0.590103 1.0647
                  CHANNELS 3 Zrotation Xrotation Yrotation
                  End Site
                  {
                    OFFSET -2.48547 -0.328903 0.83742
                  }
                }
              }
              JOINT rRing1
              {
                OFFSET -8.82822 0.546677 1.51678
                CHANNELS 3 Zrotation Xrotation Yrotation
                JOINT rRing2
                {
                  OFFSET -2.60934 -0.819778 -0.0198488
                  CHANNELS 3 Zrotation Xrotation Yrotation
                  End Site
                  {
                    OFFSET -2.33842 -0.294052 0.168128
                  }
                }
              }
              JOINT rPinky1
              {
                OFFSET -8.27202 -0.0477905 -0.4584
                CHANNELS 3 Zrotation Xrotation Yrotation
                JOINT rPinky2
                {
                  OFFSET -1.82734 -0.647385 -0.700984
                  CHANNELS 3 Zrotation Xrotation Yrotation
                  End Site
                  {
                    OFFSET -1.69225 -0.51767 -0.607171
                  }
                }
              }
            }
          }
        }
      }
      JOINT lCollar
      {
        OFFSET 2.68224 19.2634 -4.8768
        CHANNELS 3 Zrotation Xrotation Yrotation
        JOINT lShldr
        {
          OFFSET 8.77824 -1.95073 1.46304
          CHANNELS 3 Zrotation Xrotation Yrotation
          JOINT lForeArm
          {
            OFFSET 28.1742 -1.7115 0.48768
            CHANNELS 3 Zrotation Xrotation Yrotation
            JOINT lHand
            {
              OFFSET 22.5879 0.773209 7.07136
              CHANNELS 3 Zrotation Xrotation Yrotation
              JOINT lThumb1
              {
                OFFSET 1.2192 -0.487915 3.41376
                CHANNELS 3 Zrotation Xrotation Yrotation
                JOINT lThumb2
                {
                  OFFSET 3.37035 -0.52449 3.41376
                  CHANNELS 3 Zrotation Xrotation Yrotation
                  End Site
                  {
                    OFFSET 1.78271 -1.18214 1.43049
                  }
                }
              }
              JOINT lIndex1
              {
                OFFSET 7.75947 0.938293 5.60832
                CHANNELS 3 Zrotation Xrotation Yrotation
                JOINT lIndex2
                {
                  OFFSET 2.54057 -0.884171 1.56538
                  CHANNELS 3 Zrotation Xrotation Yrotation
                  End Site
                  {
                    OFFSET 1.62519 -0.234802 1.16502
                  }
                }
              }
              JOINT lMid1
              {
                OFFSET 8.24714 1.18213 3.41376
                CHANNELS 3 Zrotation Xrotation Yrotation
                JOINT lMid2
                {
                  OFFSET 3.10165 -0.590103 1.0647
                  CHANNELS 3 Zrotation Xrotation Yrotation
                  End Site
                  {
                    OFFSET 2.48547 -0.328903 0.83742
                  }
                }
              }
              JOINT lRing1
              {
                OFFSET 8.82822 0.546677 1.51678
                CHANNELS 3 Zrotation Xrotation Yrotation
                JOINT lRing2
                {
                  OFFSET 2.60934 -0.819778 -0.0198488
                  CHANNELS 3 Zrotation Xrotation Yrotation
                  End Site
                  {
                    OFFSET 2.33842 -0.294052 0.168128
                  }
                }
              }
              JOINT lPinky1
              {
                OFFSET 8.27202 -0.0477905 -0.4584
                CHANNELS 3 Zrotation Xrotation Yrotation
                JOINT lPinky2
                {
                  OFFSET 1.82734 -0.647385 -0.700984
                  CHANNELS 3 Zrotation Xrotation Yrotation
                  End Site
                  {
                    OFFSET 1.69225 -0.51767 -0.607171
                  }
                }
              }
            }
          }
        }
      }
    }
  }
  JOINT rButtock
  {
    OFFSET -8.77824 4.35084 1.2192
    CHANNELS 3 Zrotation Xrotation Yrotation
    JOINT rThigh
    {
      OFFSET 0 -1.70687 -2.19456
      CHANNELS 3 Zrotation Xrotation Yrotation
      JOINT rShin
      {
        OFFSET 0 -36.8199 0.73152
        CHANNELS 3 Zrotation Xrotation Yrotation
        JOINT rFoot
        {
          OFFSET 0.73152 -45.1104 -5.12064
          CHANNELS 3 Zrotation Xrotation Yrotation
          End Site
          {
            OFFSET -1.1221 -3.69964 12.103
          }
        }
      }
    }
  }
  JOINT lButtock
  {
    OFFSET 8.77824 4.35084 1.2192
    CHANNELS 3 Zrotation Xrotation Yrotation
    JOINT lThigh
    {
      OFFSET 0 -1.70687 -2.19456
      CHANNELS 3 Zrotation Xrotation Yrotation
      JOINT lShin
      {
        OFFSET 0 -36.8199 0.73152
        CHANNELS 3 Zrotation Xrotation Yrotation
        JOINT lFoot
        {
          OFFSET -0.73152 -45.1104 -5.12064
          CHANNELS 3 Zrotation Xrotation Yrotation
          End Site
          {
            OFFSET 1.1221 -3.69964 12.103
          }
        }
      }
    }
  }
}
MOTION
Frames: 7
Frame Time:	0.06666666
7.07107 85.0114 -144.899 0.0 0.0 0.0 0.0256064 -6.19215e-06 0.000728841 0.0070648 8.63083e-06 0.00122382 5.63061e-18 -7.95139e-16 5.43552e-18 1.2424e-17 3.18055e-15 1.86361e-17 -0.0 0.0 0.0 -0.0 0.0 0.0 4.83722e-17 0.0 1.98785e-16 1.95475e-15 2.79541e-16 7.95139e-16 -1.73937e-15 3.97569e-16 1.90833e-14 2.32578e-14 4.5969e-15 -1.59028e-14 4.43293e-14 5.36068e-15 2.22639e-14 7.59357e-14 6.36111e-15 4.37326e-14 4.8901e-14 4.77083e-15 1.90833e-14 7.73091 5.47488 0.417314 4.45775e-14 5.66536e-15 3.18055e-14 2.90554 0.965183 0.102902 5.17275e-14 5.56597e-15 2.78299e-14 10.2786 0.731801 0.0259123 4.11484e-14 5.96354e-15 3.81667e-14 2.22167 -0.733487 -0.20892 -4.83722e-17 0.0 -1.98785e-16 -1.95475e-15 2.79541e-16 -7.95139e-16 6.01324e-15 1.98785e-16 -6.36111e-15 1.40081e-14 -4.96962e-16 2.54444e-14 4.51542e-14 -6.56691e-15 2.8625e-14 8.62725e-14 -1.27222e-14 5.00937e-14 4.13472e-14 -5.1684e-15 4.13472e-14 -7.73091 5.47488 -0.417314 4.62671e-14 -6.26172e-15 2.8625e-14 -2.90554 0.965183 -0.102902 4.00986e-14 -6.65929e-15 2.78299e-14 -10.2786 0.731801 -0.0259123 4.31363e-14 -5.56597e-15 1.90833e-14 -2.22167 -0.733487 0.20892 -2.03217e-16 0.0 -3.88251e-19 0.512301 -3.13364 -0.0420886 -0.00562803 0.1231 -0.0495525 -0.492801 3.00963 0.11736 2.03217e-16 0.0 3.88251e-19 -0.473324 -3.03453 0.0397104 0.00592197 -0.0564351 0.0521749 0.492504 3.09005 -0.118955
5.81279 84.1244 -143.895 -3.8453 -5.1254 0.3823 3.85875 2.48374 2.22759 0.358611 -1.49045 0.668112 -5.14257 0.337264 -1.73711 4.62519 -1.75733 -1.93088 -0.0 0.0 0.0 -0.0 0.0 0.0 1.5833e-14 -2.81261e-15 -2.24037e-14 42.4288 10.1762 4.10582 -10.0779 -5.30137 16.421 -0.00159413 2.35394 0.330811 -7.85974e-10 1.52568e-09 -3.06936e-10 -1.36038e-09 2.64069e-09 -5.26654e-10 -7.85972e-10 1.52568e-09 -3.06943e-10 7.73091 5.47488 0.417314 -7.85976e-10 1.52568e-09 -3.06938e-10 2.90554 0.965183 0.102902 -7.85967e-10 1.52568e-09 -3.06934e-10 10.2786 0.731801 0.0259123 -7.85978e-10 1.52568e-09 -3.06926e-10 2.22167 -0.733487 -0.20892 1.57809e-14 -2.80302e-15 -2.27484e-14 -48.6627 0.73635 2.51607 5.00012 -1.89084 -8.44522 0.0330041 10.9436 -1.53599 -1.06084e-09 -4.51811e-10 -5.53803e-10 -1.8428e-09 -7.83792e-10 -9.39694e-10 -1.06084e-09 -4.51809e-10 -5.53786e-10 -7.73091 5.47488 -0.417314 -1.06084e-09 -4.51812e-10 -5.53805e-10 -2.90554 0.965183 -0.102902 -1.06085e-09 -4.51812e-10 -5.53804e-10 -10.2786 0.731801 -0.0259123 -1.06084e-09 -4.51809e-10 -5.53809e-10 -2.22167 -0.733487 0.20892 -2.03217e-16 0.0 -3.88251e-19 5.66842 3.81294 2.64564 0.0111386 12.0645 0.233238 -0.707929 -3.45865 -1.52021 2.03217e-16 0.0 3.88251e-19 1.06482 -18.9108 -0.0510849 0.0437944 13.7134 -0.114581 0.668249 -0.395092 2.4522
5.98458 84.2812 -141.813 -3.642 -5.3788 0.2071 6.3139 4.36892 3.94906 0.719233 -2.64515 1.17604 -9.0912 0.638753 -3.11839 8.07302 -3.10041 -3.51439 -0.0 0.0 0.0 -0.0 0.0 0.0 2.46608e-14 -6.56727e-15 -4.47266e-14 74.5606 17.7157 7.37924 -15.8103 -8.51213 29.273 -0.0226719 4.29442 0.604685 -1.15981e-09 2.21028e-09 -4.65719e-10 -2.00754e-09 3.82583e-09 -7.99274e-10 -1.15981e-09 2.21029e-09 -4.65729e-10 7.73091 5.47488 0.417314 -1.15981e-09 2.21029e-09 -4.65729e-10 2.90554 0.965183 0.102902 -1.1598e-09 2.21029e-09 -4.65719e-10 10.2786 0.731801 0.0259123 -1.15981e-09 2.21029e-09 -4.65713e-10 2.22167 -0.733487 -0.20892 2.46393e-14 -6.55252e-15 -4.50247e-14 -86.5275 1.22328 4.51599 8.48036 -3.2678 -14.9811 0.488298 19.4625 -2.84674 -1.58151e-09 -6.20542e-10 -8.8192e-10 -2.74831e-09 -1.07708e-09 -1.49823e-09 -1.58151e-09 -6.20539e-10 -8.81901e-10 -7.73091 5.47488 -0.417314 -1.5815e-09 -6.20544e-10 -8.81923e-10 -2.90554 0.965183 -0.102902 -1.58152e-09 -6.20542e-10 -8.81921e-10 -10.2786 0.731801 -0.0259123 -1.5815e-09 -6.20539e-10 -8.81923e-10 -2.22167 -0.733487 0.20892 -2.03217e-16 0.0 -3.88251e-19 8.8602 8.88471 4.67363 -0.0739153 22.2586 0.479552 -1.03699 -7.88223 -2.5071 2.03217e-16 0.0 3.88251e-19 1.83936 -30.9931 -0.15489 0.133935 24.4169 -0.247039 0.962963 -2.90156 4.11132
6.35052 84.4681 -139.735 -2.3556 -5.4499 -0.0729 4.97095 4.44844 4.14549 1.06226 -2.81918 1.21035 -9.47891 0.913226 -3.44738 8.25456 -3.27296 -4.09068 -0.0 0.0 0.0 -0.0 0.0 0.0 9.59371e-15 -1.62036e-14 -7.31e-14 79.8088 17.7691 7.15827 -16.2429 -8.63725 30.5494 -0.0318701 4.93441 0.695344 -1.13131e-10 -2.58592e-11 -9.2845e-11 -1.96566e-10 -4.36405e-11 -1.59814e-10 -1.13131e-10 -2.58522e-11 -9.28537e-11 7.73091 5.47488 0.417314 -1.13133e-10 -2.58495e-11 -9.28509e-11 2.90554 0.965183 0.102902 -1.13126e-10 -2.58498e-11 -9.28437e-11 10.2786 0.731801 0.0259123 -1.13135e-10 -2.58562e-11 -9.28394e-11 2.22167 -0.733487 -0.20892 9.57098e-15 -1.61985e-14 -7.33484e-14 -91.8288 1.00465 5.01147 8.843 -3.39648 -15.7137 0.589834 20.7141 -3.05444 -2.09205e-10 2.2348e-10 -4.39947e-10 -3.69492e-10 3.84308e-10 -7.56995e-10 -2.09207e-10 2.23482e-10 -4.39929e-10 -7.73091 5.47488 -0.417314 -2.09203e-10 2.23481e-10 -4.39947e-10 -2.90554 0.965183 -0.102902 -2.09217e-10 2.23483e-10 -4.39946e-10 -10.2786 0.731801 -0.0259123 -2.09201e-10 2.23484e-10 -4.39947e-10 -2.22167 -0.733487 0.20892 -2.03217e-16 0.0 -3.88251e-19 7.76549 8.56523 4.5897 -0.139085 27.1172 0.529412 -0.793058 -6.57871 -1.50214 2.03217e-16 0.0 3.88251e-19 0.313612 -31.6605 -0.310159 0.151377 25.8417 -0.209939 0.791065 -2.41775 2.95111
6.71942 84.6242 -137.731 -1.2249 -4.6875 -0.3588 2.78079 4.01423 3.78207 1.28799 -2.60772 1.07142 -8.75629 0.996554 -3.38921 7.4672 -2.92112 -4.21828 -0.0 0.0 0.0 -0.0 0.0 0.0 -6.3818e-15 -2.06709e-14 -8.74156e-14 76.1529 15.2384 5.82232 -15.1548 -7.92506 27.9079 -0.0343462 5.28244 0.74453 9.7783e-10 -2.30795e-09 2.53942e-10 1.69114e-09 -3.99273e-09 4.34032e-10 9.7783e-10 -2.30794e-09 2.53935e-10 7.73091 5.47488 0.417314 9.77827e-10 -2.30794e-09 2.53942e-10 2.90554 0.965183 0.102902 9.77834e-10 -2.30794e-09 2.53945e-10 10.2786 0.731801 0.0259123 9.77826e-10 -2.30795e-09 2.53948e-10 2.22167 -0.733487 -0.20892 -6.4402e-15 -2.06769e-14 -8.7664e-14 -86.2636 0.476139 4.89592 8.23694 -3.13677 -14.5342 0.499038 19.6649 -2.87881 1.15871e-09 1.02352e-09 4.18434e-11 2.00232e-09 1.76979e-09 5.31685e-11 1.15871e-09 1.02352e-09 4.18593e-11 -7.73091 5.47488 -0.417314 1.15871e-09 1.02352e-09 4.18466e-11 -2.90554 0.965183 -0.102902 1.15869e-09 1.02352e-09 4.18458e-11 -10.2786 0.731801 -0.0259123 1.15871e-09 1.02352e-09 4.18466e-11 -2.22167 -0.733487 0.20892 -2.03217e-16 0.0 -3.88251e-19 5.5354 6.11882 3.66461 -0.180473 30.4194 0.512465 -0.465433 -2.4716 0.265739 2.03217e-16 0.0 3.88251e-19 -1.58973 -28.5998 -0.315425 0.139862 24.3616 -0.113258 0.54594 -1.13247 0.994874
6.95498 84.6913 -135.855 -0.8848 -3.9259 -0.468 2.2797 4.07328 3.52941 1.23917 -2.3674 0.968892 -8.81786 0.52505 -3.43208 7.47278 -2.32083 -4.25653 -0.0 0.0 0.0 -0.0 0.0 0.0 -1.06173e-16 -2.57568e-15 -5.12647e-14 76.836 13.5337 5.36545 -14.7659 -7.59075 27.1052 -0.0480994 6.30501 0.889636 6.71975e-10 -1.58804e-09 -4.45852e-11 1.16205e-09 -2.74699e-09 -8.15922e-11 6.71975e-10 -1.58803e-09 -4.45872e-11 7.73091 5.47488 0.417314 6.71971e-10 -1.58803e-09 -4.45842e-11 2.90554 0.965183 0.102902 6.71977e-10 -1.58803e-09 -4.45818e-11 10.2786 0.731801 0.0259123 6.71968e-10 -1.58803e-09 -4.45777e-11 2.22167 -0.733487 -0.20892 -2.78951e-16 -2.58153e-15 -5.16716e-14 -86.1112 -0.269335 4.71699 8.12749 -3.07859 -14.3339 0.53343 20.2992 -2.97983 4.71276e-10 5.90088e-10 -2.04508e-10 8.09557e-10 1.01905e-09 -3.61138e-10 4.71273e-10 5.90088e-10 -2.04496e-10 -7.73091 5.47488 -0.417314 4.71279e-10 5.9009e-10 -2.04506e-10 -2.90554 0.965183 -0.102902 4.71265e-10 5.9009e-10 -2.04505e-10 -10.2786 0.731801 -0.0259123 4.71277e-10 5.9009e-10 -2.04504e-10 -2.22167 -0.733487 0.20892 -2.03217e-16 0.0 -3.88251e-19 4.6617 3.8009 2.69776 -0.258856 35.1661 0.557327 -0.408277 2.85932 2.01715 2.03217e-16 0.0 3.88251e-19 -2.18528 -27.6766 0.0549083 0.147389 24.9317 -0.0469548 0.438649 -0.768289 -0.193601
7.07616 84.6943 -133.913 -0.8915 -3.7007 -0.8613 1.99294 4.25223 3.27367 1.11976 -2.16779 0.86308 -8.92282 0.103716 -3.41101 7.56548 -1.81202 -4.15639 -0.0 0.0 0.0 -0.0 0.0 0.0 1.09634e-14 1.41141e-14 -1.98785e-14 77.4698 12.073 4.8658 -14.4231 -7.30097 26.4093 -0.0647296 7.24036 1.02307 1.72258e-10 -4.65245e-10 -4.20498e-10 2.97331e-10 -8.03911e-10 -7.30192e-10 1.72259e-10 -4.65244e-10 -4.20498e-10 7.73091 5.47488 0.417314 1.72255e-10 -4.65241e-10 -4.20498e-10 2.90554 0.965183 0.102902 1.7226e-10 -4.6524e-10 -4.20495e-10 10.2786 0.731801 0.0259123 1.7225e-10 -4.65237e-10 -4.20488e-10 2.22167 -0.733487 -0.20892 1.07048e-14 1.41118e-14 -2.04251e-14 -85.9696 -0.78892 4.52558 8.09107 -3.0595 -14.2671 0.55435 20.6693 -3.03925 -4.57949e-10 5.10797e-11 -5.21566e-10 -8.0213e-10 8.55251e-11 -8.93659e-10 -4.57955e-10 5.10809e-11 -5.21557e-10 -7.73091 5.47488 -0.417314 -4.57947e-10 5.10799e-11 -5.21566e-10 -2.90554 0.965183 -0.102902 -4.57958e-10 5.10803e-11 -5.21563e-10 -10.2786 0.731801 -0.0259123 -4.5795e-10 5.10797e-11 -5.21563e-10 -2.22167 -0.733487 0.20892 -2.03217e-16 0.0 -3.88251e-19 3.83578 1.0613 1.778 -0.354988 40.1009 0.629786 -0.710567 9.01382 3.84518 2.03217e-16 0.0 3.88251e-19 -2.57342 -26.7312 0.556358 0.152315 25.5955 0.0198347 0.362749 -0.729727 -1.15042
